<svg xmlns="http://www.w3.org/2000/svg" height="20" viewBox="0 96 960 960" width="20"><path d="M240 864q-50 0-85-35t-35-85H48V336q0-29.7 21.15-50.85Q90.3 264 120 264h552v144h120l120 168v168h-72q0 50-35 85t-85 35q-50 0-85-35t-35-85H360q0 50-35 85t-85 35Zm0-72q20.4 0 34.2-13.8Q288 764.4 288 744q0-20.4-13.8-34.2Q260.4 696 240 696q-20.4 0-34.2 13.8Q192 723.6 192 744q0 20.4 13.8 34.2Q219.6 792 240 792ZM120 672h24q17-23 42-35.5t54-12.5q29 0 54 12.5t41.529 35.5H600V336H120v336Zm600 120q20.4 0 34.2-13.8Q768 764.4 768 744q0-20.4-13.8-34.2Q740.4 696 720 696q-20.4 0-34.2 13.8Q672 723.6 672 744q0 20.4 13.8 34.2Q699.6 792 720 792Zm-48-192 168-1-85-119h-83v120Zm-310-93Z"/></svg>